<svg width="16" height="16" viewBox="0 0 16 16" fill="none" xmlns="http://www.w3.org/2000/svg">
<path d="M7.36824 5.20913L7.8693 2.8518C8.02244 2.13151 8.73044 1.67172 9.45077 1.82482L11.5815 2.27773C11.8899 1.93583 12.3671 1.76315 12.8498 1.86576C13.5701 2.01886 14.0299 2.72689 13.8768 3.44717C13.7237 4.16746 13.0157 4.62725 12.2954 4.47415C11.8127 4.37155 11.447 4.01969 11.3043 3.58193L9.1735 3.12901L8.72937 5.21871C9.9191 5.31008 11.1013 5.70605 12.1719 6.35193C12.726 6.04395 13.3993 5.99444 14.0045 6.23947C14.7819 6.55419 15.3019 7.29613 15.3326 8.13426L15.3329 8.14826C15.3432 8.81733 15.0392 9.44266 14.5278 9.84833C14.5264 9.87739 14.5246 9.90486 14.5222 9.93026C14.5222 12.5955 11.5559 14.6167 7.98997 14.6167C4.43472 14.6167 1.51779 12.6007 1.51975 9.98139C1.51666 9.94113 1.51425 9.90086 1.51254 9.86059C0.977843 9.45706 0.656318 8.81733 0.66675 8.12966C0.679537 7.28666 1.18878 6.53071 1.9652 6.20213C2.57256 5.9451 3.25384 5.98752 3.81564 6.29473C4.90504 5.64321 6.10502 5.2738 7.36824 5.20913ZM13.5588 8.89286C13.8309 8.75766 14.0018 8.47933 13.9999 8.17593C13.9858 7.86586 13.7923 7.59199 13.5042 7.47533C13.2138 7.35779 12.8816 7.42173 12.6556 7.63866L12.2659 8.01266L11.8192 7.70899C10.7423 6.97699 9.5179 6.55866 8.33284 6.53309L7.66184 6.53301C6.41178 6.55186 5.22741 6.93233 4.17018 7.64933L3.72814 7.94913L3.33915 7.58313C3.10984 7.36739 2.77479 7.30733 2.48484 7.43006C2.19488 7.55273 2.0047 7.83506 1.99984 8.14986C1.99516 8.46466 2.17668 8.75266 2.46278 8.88406L2.88476 9.07793L2.84916 9.54099C2.8405 9.65353 2.8405 9.76659 2.85112 9.93026C2.85112 11.7369 5.08859 13.2833 7.98997 13.2833C10.9039 13.2833 13.1889 11.7264 13.1908 9.87919C13.1995 9.76659 13.1995 9.65353 13.1908 9.54099L13.1564 9.09293L13.5588 8.89286ZM4.63367 8.99879C4.63367 8.44653 5.08138 7.99879 5.63367 7.99879C6.18596 7.99879 6.63367 8.44653 6.63367 8.99879C6.63367 9.55106 6.18596 9.99879 5.63367 9.99879C5.36845 9.99879 5.1141 9.89346 4.92656 9.70593C4.73902 9.51839 4.63367 9.26399 4.63367 8.99879ZM9.3003 8.99879C9.3003 8.44653 9.74804 7.99879 10.3003 7.99879C10.8526 7.99879 11.3003 8.44653 11.3003 8.99879C11.3003 9.55106 10.8526 9.99879 10.3003 9.99879C10.0351 9.99879 9.78077 9.89346 9.59324 9.70593C9.4057 9.51839 9.3003 9.26399 9.3003 8.99879ZM7.9775 12.4007C7.04604 12.4007 6.13312 12.1541 5.38986 11.5941C5.29756 11.4816 5.30562 11.3175 5.4085 11.2146C5.51137 11.1117 5.6755 11.1037 5.78796 11.1959C6.41782 11.6579 7.20317 11.8559 7.96697 11.8559C8.73084 11.8559 9.5207 11.673 10.1565 11.2169C10.2314 11.1439 10.3395 11.1164 10.4401 11.1447C10.5408 11.1731 10.6186 11.2529 10.6444 11.3543C10.6702 11.4556 10.6343 11.5553 10.5651 11.6359C10.109 12.1676 8.9089 12.4007 7.9775 12.4007Z" fill="white"/>
</svg>
