<svg width="14" height="16" viewBox="0 0 14 16" fill="none" xmlns="http://www.w3.org/2000/svg">
<path d="M7.12217 0.938965H7.1213C5.05992 0.953245 3.46674 1.6477 2.39563 3.00932C1.44371 4.21944 0.956315 5.90843 0.939941 8.00339V8.00432C0.956315 10.0994 1.44374 11.7786 2.39563 12.9887C3.46679 14.3503 5.06821 15.0447 7.12957 15.059H7.13037C8.9625 15.0463 10.2618 14.5658 11.3322 13.4964C12.7354 12.0945 12.6937 10.3354 12.2302 9.25432C11.8774 8.43173 11.1804 7.77339 10.2466 7.36399C10.1259 5.37449 9.0063 4.21338 7.16623 4.20162C6.07924 4.19492 5.09845 4.68138 4.49773 5.59289L5.60142 6.34999C5.9567 5.81098 6.5191 5.55096 7.1579 5.55687C8.08277 5.56277 8.69063 6.07304 8.86123 6.96826C8.3465 6.88772 7.7933 6.86432 7.2049 6.89806C5.44546 6.99939 4.2931 8.03952 4.36994 9.48179C4.45031 10.9897 5.91117 11.8113 7.29823 11.7355C8.95977 11.6445 9.9471 10.4183 10.1813 8.85459C10.566 9.10386 10.8499 9.42179 11.0107 9.79679C11.3038 10.4803 11.3224 11.6077 10.4002 12.529C9.58903 13.3394 8.6139 13.6927 7.1259 13.7037C5.47602 13.6914 4.23782 13.1629 3.43419 12.1413C2.67965 11.1821 2.28545 9.79099 2.27068 7.99899C2.28545 6.20693 2.67965 4.81585 3.43419 3.85668C4.23782 2.83508 5.476 2.30657 7.12583 2.29421C8.78777 2.30666 10.0484 2.83777 10.8834 3.8651C11.344 4.43175 11.6325 5.10912 11.8251 5.80824L13.1182 5.46323C12.8764 4.57164 12.4941 3.72133 11.9085 3.00089C10.8064 1.64498 9.18757 0.953298 7.12217 0.938965ZM7.2801 8.25099C7.86943 8.21699 8.41577 8.25446 8.90124 8.35519C8.80744 9.40659 8.37244 10.3193 7.22657 10.3822C6.4853 10.4239 5.73523 10.0931 5.69877 9.40819C5.67163 8.89906 6.04823 8.32199 7.2801 8.25099Z" fill="white"/>
</svg>
