<svg width="163" height="211" viewBox="0 0 163 211" fill="none" xmlns="http://www.w3.org/2000/svg">
<g filter="url(#filter0_d_71_4338)">
<path d="M64.7555 170.164C70.1485 176.389 75.616 182.564 81.7591 188.063C82.5775 189.266 81.582 190.314 80.3403 190.575L16.1723 171.117C15.1843 170.351 15.3654 169.314 16.0856 168.425C31.0462 156.499 45.7906 144.088 61.3261 132.965C62.8687 131.86 67.3713 128.416 68.7767 127.949C69.7667 127.618 71.2411 128.539 71.0029 129.658L61.6014 155.293C65.8354 155.017 70.1171 154.748 74.3277 154.261C88.1779 152.665 103.102 150.375 110.642 137.025C116.697 126.304 114.499 113.184 108.6 102.886C86.5125 113.269 57.1524 114.015 39.0599 95.4934C24.072 80.1492 22.3189 58.9534 46.0298 51.7628C72.0389 43.8714 100.806 65.6816 114.197 86.5019C129.805 64.9174 133.72 35.3794 120.966 11.3932C121.14 10.467 129.384 10.1358 130.608 10.0941C132.349 10.0347 140.405 9.88682 141.411 10.6914C142.59 11.6323 144.323 18.0524 144.812 19.8934C152.047 47.2336 142.503 79.0815 120.033 96.7603C123.3 104.336 125.978 112.206 126.478 120.474C128.261 149.878 104.099 166.957 77.04 169.623C73.3541 169.985 69.2343 169.446 65.8693 169.779C65.425 169.822 65.103 169.781 64.7555 170.164ZM102.387 93.8299C94.0474 83.5285 82.6388 75.7251 70.2853 71.1188C63.2502 68.4947 53.0457 65.2395 46.742 71.0659C39.1334 78.0935 53.1226 87.4606 58.851 90.1714C72.0106 96.397 88.2902 95.3175 102.387 93.8299Z" fill="#F0DEFF" fill-opacity="0.3" shape-rendering="crispEdges"/>
<path d="M64.7555 170.164C70.1485 176.389 75.616 182.564 81.7591 188.063C82.5775 189.266 81.582 190.314 80.3403 190.575L16.1723 171.117C15.1843 170.351 15.3654 169.314 16.0856 168.425C31.0462 156.499 45.7906 144.088 61.3261 132.965C62.8687 131.86 67.3713 128.416 68.7767 127.949C69.7667 127.618 71.2411 128.539 71.0029 129.658L61.6014 155.293C65.8354 155.017 70.1171 154.748 74.3277 154.261C88.1779 152.665 103.102 150.375 110.642 137.025C116.697 126.304 114.499 113.184 108.6 102.886C86.5125 113.269 57.1524 114.015 39.0599 95.4934C24.072 80.1492 22.3189 58.9534 46.0298 51.7628C72.0389 43.8714 100.806 65.6816 114.197 86.5019C129.805 64.9174 133.72 35.3794 120.966 11.3932C121.14 10.467 129.384 10.1358 130.608 10.0941C132.349 10.0347 140.405 9.88682 141.411 10.6914C142.59 11.6323 144.323 18.0524 144.812 19.8934C152.047 47.2336 142.503 79.0815 120.033 96.7603C123.3 104.336 125.978 112.206 126.478 120.474C128.261 149.878 104.099 166.957 77.04 169.623C73.3541 169.985 69.2343 169.446 65.8693 169.779C65.425 169.822 65.103 169.781 64.7555 170.164ZM102.387 93.8299C94.0474 83.5285 82.6388 75.7251 70.2853 71.1188C63.2502 68.4947 53.0457 65.2395 46.742 71.0659C39.1334 78.0935 53.1226 87.4606 58.851 90.1714C72.0106 96.397 88.2902 95.3175 102.387 93.8299Z" fill="url(#paint0_linear_71_4338)" shape-rendering="crispEdges"/>
</g>
<defs>
<filter id="filter0_d_71_4338" x="0.487793" y="0.0439453" width="161.704" height="210.531" filterUnits="userSpaceOnUse" color-interpolation-filters="sRGB">
<feFlood flood-opacity="0" result="BackgroundImageFix"/>
<feColorMatrix in="SourceAlpha" type="matrix" values="0 0 0 0 0 0 0 0 0 0 0 0 0 0 0 0 0 0 127 0" result="hardAlpha"/>
<feOffset dy="5"/>
<feGaussianBlur stdDeviation="7.5"/>
<feComposite in2="hardAlpha" operator="out"/>
<feColorMatrix type="matrix" values="0 0 0 0 0 0 0 0 0 0 0 0 0 0 0 0 0 0 0.3 0"/>
<feBlend mode="normal" in2="BackgroundImageFix" result="effect1_dropShadow_71_4338"/>
<feBlend mode="normal" in="SourceGraphic" in2="effect1_dropShadow_71_4338" result="shape"/>
</filter>
<linearGradient id="paint0_linear_71_4338" x1="265.804" y1="-36.2242" x2="307.132" y2="159.285" gradientUnits="userSpaceOnUse">
<stop offset="0.0088" stop-color="#40A0F1" stop-opacity="0.1"/>
<stop offset="0.9899" stop-color="#FEB038" stop-opacity="0.1"/>
</linearGradient>
</defs>
</svg>
