<svg width="1440" height="438" viewBox="0 0 1440 438" fill="none" xmlns="http://www.w3.org/2000/svg">
<g opacity="0.8">
<g filter="url(#filter0_f_127_4240)">
<path d="M758.206 126.572C262.524 113.13 25.5344 188.532 -31 227.914V369.687C57.3897 334.332 302.745 263.62 577.051 263.62C851.356 263.62 1290.64 305.277 1476 326.105V69.3376C1443.27 94.0167 1253.89 140.014 758.206 126.572Z" fill="#40A0F1" fill-opacity="0.2"/>
<path d="M758.206 126.572C262.524 113.13 25.5344 188.532 -31 227.914V369.687C57.3897 334.332 302.745 263.62 577.051 263.62C851.356 263.62 1290.64 305.277 1476 326.105V69.3376C1443.27 94.0167 1253.89 140.014 758.206 126.572Z" fill="#40A0F1" fill-opacity="0.3"/>
<path d="M758.206 126.572C262.524 113.13 25.5344 188.532 -31 227.914V369.687C57.3897 334.332 302.745 263.62 577.051 263.62C851.356 263.62 1290.64 305.277 1476 326.105V69.3376C1443.27 94.0167 1253.89 140.014 758.206 126.572Z" fill="#4D008C" fill-opacity="0.3"/>
</g>
<g filter="url(#filter1_f_127_4240)">
<path d="M606.981 123.947C161.707 140.749 26.2348 194.658 -30.4746 227.389V281.998C-5.44546 263.795 90.4005 220.983 273.551 195.359C626.409 147.051 1221.86 204.635 1475.48 239.466V68.8126C1169.35 161.228 1074.31 118.696 606.981 123.947Z" fill="#E72677" fill-opacity="0.5"/>
</g>
<g filter="url(#filter2_f_127_4240)">
<path d="M815.965 126.047C540.82 115.965 466.257 113.97 176.934 160.703C110.773 195.534 12.057 249.022 146.479 209.536C314.507 160.178 749.804 163.328 843.27 151.776C918.042 142.535 835.394 136.024 815.965 126.047Z" fill="url(#paint0_linear_127_4240)" fill-opacity="0.7"/>
<path d="M815.965 126.047C540.82 115.965 466.257 113.97 176.934 160.703C110.773 195.534 12.057 249.022 146.479 209.536C314.507 160.178 749.804 163.328 843.27 151.776C918.042 142.535 835.394 136.024 815.965 126.047Z" fill="url(#paint1_linear_127_4240)" fill-opacity="0.7"/>
<path d="M815.965 126.047C540.82 115.965 466.257 113.97 176.934 160.703C110.773 195.534 12.057 249.022 146.479 209.536C314.507 160.178 749.804 163.328 843.27 151.776C918.042 142.535 835.394 136.024 815.965 126.047Z" fill="url(#paint2_linear_127_4240)" fill-opacity="0.7"/>
<path d="M815.965 126.047C540.82 115.965 466.257 113.97 176.934 160.703C110.773 195.534 12.057 249.022 146.479 209.536C314.507 160.178 749.804 163.328 843.27 151.776C918.042 142.535 835.394 136.024 815.965 126.047Z" fill="url(#paint3_linear_127_4240)" fill-opacity="0.7"/>
<path d="M815.965 126.047C540.82 115.965 466.257 113.97 176.934 160.703C110.773 195.534 12.057 249.022 146.479 209.536C314.507 160.178 749.804 163.328 843.27 151.776C918.042 142.535 835.394 136.024 815.965 126.047Z" fill="url(#paint4_linear_127_4240)" fill-opacity="0.7"/>
</g>
<g filter="url(#filter3_f_127_4240)">
<path d="M863.748 244.192C257.605 212.189 359.039 245.065 145.463 264.521L-29.9502 295.65C5.41248 258.035 183.381 175.801 612.355 147.785C799.162 135.584 1368.69 219.015 863.748 244.192Z" fill="url(#paint5_linear_127_4240)" fill-opacity="0.2"/>
<path d="M863.748 244.192C257.605 212.189 359.039 245.065 145.463 264.521L-29.9502 295.65C5.41248 258.035 183.381 175.801 612.355 147.785C799.162 135.584 1368.69 219.015 863.748 244.192Z" fill="#40A0F1" fill-opacity="0.2"/>
<path d="M863.748 244.192C257.605 212.189 359.039 245.065 145.463 264.521L-29.9502 295.65C5.41248 258.035 183.381 175.801 612.355 147.785C799.162 135.584 1368.69 219.015 863.748 244.192Z" fill="#40A0F1" fill-opacity="0.2"/>
<path d="M863.748 244.192C257.605 212.189 359.039 245.065 145.463 264.521L-29.9502 295.65C5.41248 258.035 183.381 175.801 612.355 147.785C799.162 135.584 1368.69 219.015 863.748 244.192Z" fill="#40A0F1" fill-opacity="0.2"/>
<path d="M863.748 244.192C257.605 212.189 359.039 245.065 145.463 264.521L-29.9502 295.65C5.41248 258.035 183.381 175.801 612.355 147.785C799.162 135.584 1368.69 219.015 863.748 244.192Z" fill="#40A0F1" fill-opacity="0.2"/>
</g>
</g>
<defs>
<filter id="filter0_f_127_4240" x="-99" y="1.33765" width="1643" height="436.35" filterUnits="userSpaceOnUse" color-interpolation-filters="sRGB">
<feFlood flood-opacity="0" result="BackgroundImageFix"/>
<feBlend mode="normal" in="SourceGraphic" in2="BackgroundImageFix" result="shape"/>
<feGaussianBlur stdDeviation="34" result="effect1_foregroundBlur_127_4240"/>
</filter>
<filter id="filter1_f_127_4240" x="-98.4746" y="0.812561" width="1641.95" height="349.185" filterUnits="userSpaceOnUse" color-interpolation-filters="sRGB">
<feFlood flood-opacity="0" result="BackgroundImageFix"/>
<feBlend mode="normal" in="SourceGraphic" in2="BackgroundImageFix" result="shape"/>
<feGaussianBlur stdDeviation="34" result="effect1_foregroundBlur_127_4240"/>
</filter>
<filter id="filter2_f_127_4240" x="27.5459" y="68.165" width="898.473" height="207.297" filterUnits="userSpaceOnUse" color-interpolation-filters="sRGB">
<feFlood flood-opacity="0" result="BackgroundImageFix"/>
<feBlend mode="normal" in="SourceGraphic" in2="BackgroundImageFix" result="shape"/>
<feGaussianBlur stdDeviation="26" result="effect1_foregroundBlur_127_4240"/>
</filter>
<filter id="filter3_f_127_4240" x="-101.95" y="74.5739" width="1241.47" height="293.076" filterUnits="userSpaceOnUse" color-interpolation-filters="sRGB">
<feFlood flood-opacity="0" result="BackgroundImageFix"/>
<feBlend mode="normal" in="SourceGraphic" in2="BackgroundImageFix" result="shape"/>
<feGaussianBlur stdDeviation="36" result="effect1_foregroundBlur_127_4240"/>
</filter>
<linearGradient id="paint0_linear_127_4240" x1="79.5459" y1="176.403" x2="833.931" y2="176.403" gradientUnits="userSpaceOnUse">
<stop stop-color="#4D008C"/>
<stop offset="0.304428" stop-color="#FEB038"/>
<stop offset="0.687908" stop-color="#FEB038"/>
<stop offset="1" stop-color="#E72677"/>
</linearGradient>
<linearGradient id="paint1_linear_127_4240" x1="79.5459" y1="176.403" x2="833.931" y2="176.403" gradientUnits="userSpaceOnUse">
<stop stop-color="#4D008C"/>
<stop offset="0.304428" stop-color="#FEB038"/>
<stop offset="0.687908" stop-color="#FEB038"/>
<stop offset="1" stop-color="#E72677"/>
</linearGradient>
<linearGradient id="paint2_linear_127_4240" x1="79.5459" y1="176.403" x2="833.931" y2="176.403" gradientUnits="userSpaceOnUse">
<stop stop-color="#4D008C"/>
<stop offset="0.304428" stop-color="#FEB038"/>
<stop offset="0.687908" stop-color="#FEB038"/>
<stop offset="1" stop-color="#E72677"/>
</linearGradient>
<linearGradient id="paint3_linear_127_4240" x1="79.5459" y1="176.403" x2="833.931" y2="176.403" gradientUnits="userSpaceOnUse">
<stop stop-color="#4D008C"/>
<stop offset="0.304428" stop-color="#FEB038"/>
<stop offset="0.687908" stop-color="#FEB038"/>
<stop offset="1" stop-color="#E72677"/>
</linearGradient>
<linearGradient id="paint4_linear_127_4240" x1="79.5459" y1="176.403" x2="833.931" y2="176.403" gradientUnits="userSpaceOnUse">
<stop stop-color="#4D008C"/>
<stop offset="0.687908" stop-color="#FEB038"/>
<stop offset="1" stop-color="#E72677"/>
</linearGradient>
<linearGradient id="paint5_linear_127_4240" x1="458.381" y1="75.1136" x2="660.539" y2="220.038" gradientUnits="userSpaceOnUse">
<stop stop-color="#67BAFF"/>
<stop offset="1" stop-color="#40A0F1"/>
</linearGradient>
</defs>
</svg>
