<svg width="17" height="13" viewBox="0 0 17 13" fill="none" xmlns="http://www.w3.org/2000/svg">
<path d="M14.7066 1.03993L6.31862 9.43326L3.25995 6.37326C3.00976 6.12307 2.67044 5.98252 2.31662 5.98252C1.9628 5.98252 1.62347 6.12307 1.37329 6.37326C1.1231 6.62345 0.982544 6.96278 0.982544 7.3166C0.982544 7.67041 1.1231 8.00974 1.37329 8.25993L5.37329 12.2599C5.62332 12.5099 5.9624 12.6503 6.31595 12.6503C6.6695 12.6503 7.00858 12.5099 7.25862 12.2599L16.592 2.9266C16.8421 2.67658 16.9828 2.33743 16.9829 1.98373C16.983 1.63004 16.8426 1.29078 16.5926 1.04059C16.3426 0.790407 16.0035 0.649783 15.6498 0.649658C15.2961 0.649533 14.9568 0.789918 14.7066 1.03993Z" fill="#01B574"/>
</svg>
