<svg width="104" height="64" viewBox="0 0 104 64" fill="none" xmlns="http://www.w3.org/2000/svg">
<path opacity="0.1" d="M104 0L104 27.6111C104 38.2408 102.331 48.0926 98.9926 57.1667C95.3975 66.2408 89.363 75.1852 80.8889 84L65.8667 72.7222C72.5432 65.2037 77.1654 58.3333 79.7333 52.1111C82.0444 46.1481 83.2 39.7963 83.2 33.0556L92.4444 39.6667L64.7111 39.6667L64.7111 3.43474e-06L104 0ZM39.2889 5.65722e-06L39.2889 27.6111C39.2889 38.2408 37.6198 48.0926 34.2815 57.1667C30.6864 66.2408 24.6519 75.1852 16.1778 84L1.15556 72.7222C7.83211 65.2037 12.4543 58.3334 15.0222 52.1111C17.3333 46.1482 18.4889 39.7963 18.4889 33.0556L27.7333 39.6667L-3.87574e-06 39.6667L-7.34351e-06 9.09197e-06L39.2889 5.65722e-06Z" fill="white"/>
</svg>
